
<svg width="1920" height="955" xmlns="http://www.w3.org/2000/svg"><g><path d="M-110.42003648355603,-114.89430190762505L-113.75659436220303,515.4612784367055L-44.37895119888708,77.31053091352805Z" fill="#d14e4d" stroke="#d14e4d"></path><path d="M-110.42003648355603,-114.89430190762505L-44.37895119888708,77.31053091352805L76.2212890968658,-31.851166458800435Z" fill="#bd1129" stroke="#bd1129"></path><path d="M-110.42003648355603,-114.89430190762505L76.2212890968658,-31.851166458800435L239.0065874531865,-114.97796972282231Z" fill="#b81824" stroke="#b81824"></path><path d="M-110.42003648355603,-114.89430190762505L239.0065874531865,-114.97796972282231L890.5531308683567,-119.87198904622346Z" fill="#c74539" stroke="#c74539"></path><path d="M76.2212890968658,-31.851166458800435L-44.37895119888708,77.31053091352805L123.04487579502165,51.09566165832803Z" fill="#ce3239" stroke="#ce3239"></path><path d="M76.2212890968658,-31.851166458800435L123.04487579502165,51.09566165832803L239.0065874531865,-114.97796972282231Z" fill="#c92a35" stroke="#c92a35"></path><path d="M239.0065874531865,-114.97796972282231L123.04487579502165,51.09566165832803L196.88991147093475,91.82229808531702Z" fill="#d54140" stroke="#d54140"></path><path d="M239.0065874531865,-114.97796972282231L196.88991147093475,91.82229808531702L360.4599950136617,20.076387266162783Z" fill="#d94a47" stroke="#d94a47"></path><path d="M239.0065874531865,-114.97796972282231L360.4599950136617,20.076387266162783L382.048051066231,-112.98647680785507Z" fill="#cf4341" stroke="#cf4341"></path><path d="M239.0065874531865,-114.97796972282231L382.048051066231,-112.98647680785507L890.5531308683567,-119.87198904622346Z" fill="#ce5d51" stroke="#ce5d51"></path><path d="M382.048051066231,-112.98647680785507L360.4599950136617,20.076387266162783L518.9255251339637,-69.79142470983788Z" fill="#d9524f" stroke="#d9524f"></path><path d="M382.048051066231,-112.98647680785507L518.9255251339637,-69.79142470983788L606.5576451784,-91.20784257538617Z" fill="#d35c56" stroke="#d35c56"></path><path d="M382.048051066231,-112.98647680785507L606.5576451784,-91.20784257538617L890.5531308683567,-119.87198904622346Z" fill="#d26c66" stroke="#d26c66"></path><path d="M518.9255251339637,-69.79142470983788L360.4599950136617,20.076387266162783L471.2182934093289,67.13632143102586Z" fill="#e66960" stroke="#e66960"></path><path d="M518.9255251339637,-69.79142470983788L471.2182934093289,67.13632143102586L645.3444807347842,54.707498874049634Z" fill="#ea7a71" stroke="#ea7a71"></path><path d="M518.9255251339637,-69.79142470983788L645.3444807347842,54.707498874049634L606.5576451784,-91.20784257538617Z" fill="#e16c6e" stroke="#e16c6e"></path><path d="M606.5576451784,-91.20784257538617L645.3444807347842,54.707498874049634L754.7974209859967,-15.088442901615053Z" fill="#e57b7d" stroke="#e57b7d"></path><path d="M606.5576451784,-91.20784257538617L754.7974209859967,-15.088442901615053L890.5531308683567,-119.87198904622346Z" fill="#d8757b" stroke="#d8757b"></path><path d="M754.7974209859967,-15.088442901615053L645.3444807347842,54.707498874049634L749.5608438155614,24.215058446861804Z" fill="#ec8c8a" stroke="#ec8c8a"></path><path d="M754.7974209859967,-15.088442901615053L749.5608438155614,24.215058446861804L946.3615182903595,90.29154814779758Z" fill="#ed9798" stroke="#ed9798"></path><path d="M754.7974209859967,-15.088442901615053L946.3615182903595,90.29154814779758L890.5531308683567,-119.87198904622346Z" fill="#e28792" stroke="#e28792"></path><path d="M890.5531308683567,-119.87198904622346L946.3615182903595,90.29154814779758L1093.6696528247558,-50.95132649876177Z" fill="#d57e8e" stroke="#d57e8e"></path><path d="M890.5531308683567,-119.87198904622346L1093.6696528247558,-50.95132649876177L1227.7490203734487,-77.02500357059762Z" fill="#c27282" stroke="#c27282"></path><path d="M890.5531308683567,-119.87198904622346L1227.7490203734487,-77.02500357059762L1338.6302600591443,-118.947228344623Z" fill="#b16c7a" stroke="#b16c7a"></path><path d="M890.5531308683567,-119.87198904622346L1338.6302600591443,-118.947228344623L1931.5047241630964,-120.44209921034053Z" fill="#87566b" stroke="#87566b"></path><path d="M1093.6696528247558,-50.95132649876177L946.3615182903595,90.29154814779758L1042.6441561430693,81.65023191599175Z" fill="#de959a" stroke="#de959a"></path><path d="M1093.6696528247558,-50.95132649876177L1042.6441561430693,81.65023191599175L1207.4132101680152,35.63405707711354Z" fill="#d08994" stroke="#d08994"></path><path d="M1093.6696528247558,-50.95132649876177L1207.4132101680152,35.63405707711354L1227.7490203734487,-77.02500357059762Z" fill="#bd7187" stroke="#bd7187"></path><path d="M1227.7490203734487,-77.02500357059762L1207.4132101680152,35.63405707711354L1421.6650013322942,36.61247283220291Z" fill="#b27388" stroke="#b27388"></path><path d="M1227.7490203734487,-77.02500357059762L1421.6650013322942,36.61247283220291L1338.6302600591443,-118.947228344623Z" fill="#9f5d7b" stroke="#9f5d7b"></path><path d="M1338.6302600591443,-118.947228344623L1421.6650013322942,36.61247283220291L1481.0116207343526,-59.02035828912631Z" fill="#915377" stroke="#915377"></path><path d="M1338.6302600591443,-118.947228344623L1481.0116207343526,-59.02035828912631L1604.9546167836525,-67.49747884459794Z" fill="#7f4c6c" stroke="#7f4c6c"></path><path d="M1338.6302600591443,-118.947228344623L1604.9546167836525,-67.49747884459794L1703.1585621251725,-99.73527354421094Z" fill="#744466" stroke="#744466"></path><path d="M1338.6302600591443,-118.947228344623L1703.1585621251725,-99.73527354421094L1931.5047241630964,-120.44209921034053Z" fill="#68385c" stroke="#68385c"></path><path d="M1481.0116207343526,-59.02035828912631L1421.6650013322942,36.61247283220291L1571.8114023725502,67.32396769803017Z" fill="#8f617e" stroke="#8f617e"></path><path d="M1481.0116207343526,-59.02035828912631L1571.8114023725502,67.32396769803017L1604.9546167836525,-67.49747884459794Z" fill="#834e74" stroke="#834e74"></path><path d="M1604.9546167836525,-67.49747884459794L1571.8114023725502,67.32396769803017L1785.0419428385794,85.20167395938188Z" fill="#845578" stroke="#845578"></path><path d="M1604.9546167836525,-67.49747884459794L1785.0419428385794,85.20167395938188L1703.1585621251725,-99.73527354421094Z" fill="#763c6b" stroke="#763c6b"></path><path d="M1703.1585621251725,-99.73527354421094L1785.0419428385794,85.20167395938188L1931.5047241630964,-120.44209921034053Z" fill="#6a2a62" stroke="#6a2a62"></path><path d="M1931.5047241630964,-120.44209921034053L1785.0419428385794,85.20167395938188L1918.2738967938349,66.23159704264253Z" fill="#6f3768" stroke="#6f3768"></path><path d="M1931.5047241630964,-120.44209921034053L1918.2738967938349,66.23159704264253L2002.651070873253,-85.87247238494456Z" fill="#611a5a" stroke="#611a5a"></path><path d="M2002.651070873253,-85.87247238494456L1918.2738967938349,66.23159704264253L2026.998633062467,104.53940143808722Z" fill="#703266" stroke="#703266"></path><path d="M-44.37895119888708,77.31053091352805L-113.75659436220303,515.4612784367055L-16.07682099333033,179.42493662470952Z" fill="#d47170" stroke="#d47170"></path><path d="M-44.37895119888708,77.31053091352805L-16.07682099333033,179.42493662470952L63.61833833856508,176.4279788127169Z" fill="#d9544f" stroke="#d9544f"></path><path d="M-44.37895119888708,77.31053091352805L63.61833833856508,176.4279788127169L123.04487579502165,51.09566165832803Z" fill="#dc4c47" stroke="#dc4c47"></path><path d="M123.04487579502165,51.09566165832803L63.61833833856508,176.4279788127169L196.88991147093475,91.82229808531702Z" fill="#e45b4e" stroke="#e45b4e"></path><path d="M196.88991147093475,91.82229808531702L63.61833833856508,176.4279788127169L219.73957834765315,186.93352544214576Z" fill="#e6725e" stroke="#e6725e"></path><path d="M196.88991147093475,91.82229808531702L219.73957834765315,186.93352544214576L381.66923351120204,171.56307380413637Z" fill="#ee8368" stroke="#ee8368"></path><path d="M196.88991147093475,91.82229808531702L381.66923351120204,171.56307380413637L360.4599950136617,20.076387266162783Z" fill="#ef755f" stroke="#ef755f"></path><path d="M360.4599950136617,20.076387266162783L381.66923351120204,171.56307380413637L471.2182934093289,67.13632143102586Z" fill="#f48168" stroke="#f48168"></path><path d="M471.2182934093289,67.13632143102586L381.66923351120204,171.56307380413637L476.21066357241943,234.77369465166703Z" fill="#faa281" stroke="#faa281"></path><path d="M471.2182934093289,67.13632143102586L476.21066357241943,234.77369465166703L659.2259240522981,219.14293126901612Z" fill="#fcb495" stroke="#fcb495"></path><path d="M471.2182934093289,67.13632143102586L659.2259240522981,219.14293126901612L645.3444807347842,54.707498874049634Z" fill="#fda48c" stroke="#fda48c"></path><path d="M645.3444807347842,54.707498874049634L659.2259240522981,219.14293126901612L749.5608438155614,24.215058446861804Z" fill="#fca795" stroke="#fca795"></path><path d="M749.5608438155614,24.215058446861804L659.2259240522981,219.14293126901612L766.3714061095379,247.99653222085908Z" fill="#fdc3ac" stroke="#fdc3ac"></path><path d="M749.5608438155614,24.215058446861804L766.3714061095379,247.99653222085908L895.2329201670364,225.78125059837475Z" fill="#fcc9b6" stroke="#fcc9b6"></path><path d="M749.5608438155614,24.215058446861804L895.2329201670364,225.78125059837475L946.3615182903595,90.29154814779758Z" fill="#fab7ac" stroke="#fab7ac"></path><path d="M946.3615182903595,90.29154814779758L895.2329201670364,225.78125059837475L1006.4233759976923,218.33152905572206Z" fill="#f3cdbe" stroke="#f3cdbe"></path><path d="M946.3615182903595,90.29154814779758L1006.4233759976923,218.33152905572206L1042.6441561430693,81.65023191599175Z" fill="#eeb8ae" stroke="#eeb8ae"></path><path d="M1042.6441561430693,81.65023191599175L1006.4233759976923,218.33152905572206L1171.4899843628518,242.01972153503448Z" fill="#e7c8bc" stroke="#e7c8bc"></path><path d="M1042.6441561430693,81.65023191599175L1171.4899843628518,242.01972153503448L1207.4132101680152,35.63405707711354Z" fill="#ddaca7" stroke="#ddaca7"></path><path d="M1207.4132101680152,35.63405707711354L1171.4899843628518,242.01972153503448L1322.9924766509794,224.40958791878074Z" fill="#d0b7b1" stroke="#d0b7b1"></path><path d="M1207.4132101680152,35.63405707711354L1322.9924766509794,224.40958791878074L1359.169301178772,119.85262321308255Z" fill="#c6a2a2" stroke="#c6a2a2"></path><path d="M1207.4132101680152,35.63405707711354L1359.169301178772,119.85262321308255L1421.6650013322942,36.61247283220291Z" fill="#b78692" stroke="#b78692"></path><path d="M1359.169301178772,119.85262321308255L1322.9924766509794,224.40958791878074L1420.0153456884436,188.17749136360362Z" fill="#b9aead" stroke="#b9aead"></path><path d="M1359.169301178772,119.85262321308255L1420.0153456884436,188.17749136360362L1421.6650013322942,36.61247283220291Z" fill="#b29198" stroke="#b29198"></path><path d="M1421.6650013322942,36.61247283220291L1420.0153456884436,188.17749136360362L1571.8114023725502,67.32396769803017Z" fill="#a38290" stroke="#a38290"></path><path d="M1571.8114023725502,67.32396769803017L1420.0153456884436,188.17749136360362L1581.9491441058926,221.1163652734831Z" fill="#9f949e" stroke="#9f949e"></path><path d="M1571.8114023725502,67.32396769803017L1581.9491441058926,221.1163652734831L1785.0419428385794,85.20167395938188Z" fill="#957a8d" stroke="#957a8d"></path><path d="M1785.0419428385794,85.20167395938188L1581.9491441058926,221.1163652734831L1798.3839957299642,159.83416160568595Z" fill="#8f7e92" stroke="#8f7e92"></path><path d="M1785.0419428385794,85.20167395938188L1798.3839957299642,159.83416160568595L1918.2738967938349,66.23159704264253Z" fill="#865e7d" stroke="#865e7d"></path><path d="M1918.2738967938349,66.23159704264253L1798.3839957299642,159.83416160568595L1865.2237472077832,211.60106639144942Z" fill="#846c88" stroke="#846c88"></path><path d="M1918.2738967938349,66.23159704264253L1865.2237472077832,211.60106639144942L2007.5304430024698,158.1416788836941Z" fill="#806484" stroke="#806484"></path><path d="M1918.2738967938349,66.23159704264253L2007.5304430024698,158.1416788836941L2026.998633062467,104.53940143808722Z" fill="#805076" stroke="#805076"></path><path d="M2026.998633062467,104.53940143808722L2007.5304430024698,158.1416788836941L2031.6022942773998,361.7904602410272Z" fill="#807392" stroke="#807392"></path><path d="M2026.998633062467,104.53940143808722L2031.6022942773998,361.7904602410272L2076.429397838656,1029.92574197473Z" fill="#7e8fc4" stroke="#7e8fc4"></path><path d="M-16.07682099333033,179.42493662470952L-113.75659436220303,515.4612784367055L-41.191731225699186,400.7911012112163Z" fill="#d4828c" stroke="#d4828c"></path><path d="M-16.07682099333033,179.42493662470952L-41.191731225699186,400.7911012112163L116.4425016916357,354.9856284051202Z" fill="#da8d8b" stroke="#da8d8b"></path><path d="M-16.07682099333033,179.42493662470952L116.4425016916357,354.9856284051202L63.61833833856508,176.4279788127169Z" fill="#dd7f71" stroke="#dd7f71"></path><path d="M63.61833833856508,176.4279788127169L116.4425016916357,354.9856284051202L219.73957834765315,186.93352544214576Z" fill="#e48d78" stroke="#e48d78"></path><path d="M219.73957834765315,186.93352544214576L116.4425016916357,354.9856284051202L250.037407213822,343.1143726897426Z" fill="#e9a693" stroke="#e9a693"></path><path d="M219.73957834765315,186.93352544214576L250.037407213822,343.1143726897426L381.66923351120204,171.56307380413637Z" fill="#f0a486" stroke="#f0a486"></path><path d="M381.66923351120204,171.56307380413637L250.037407213822,343.1143726897426L374.9301655543968,373.51974262623116Z" fill="#f3bea4" stroke="#f3bea4"></path><path d="M381.66923351120204,171.56307380413637L374.9301655543968,373.51974262623116L476.21066357241943,234.77369465166703Z" fill="#f9c09f" stroke="#f9c09f"></path><path d="M476.21066357241943,234.77369465166703L374.9301655543968,373.51974262623116L499.066691622138,363.93162733875215Z" fill="#fad5bc" stroke="#fad5bc"></path><path d="M476.21066357241943,234.77369465166703L499.066691622138,363.93162733875215L659.2259240522981,219.14293126901612Z" fill="#fcd5b9" stroke="#fcd5b9"></path><path d="M659.2259240522981,219.14293126901612L499.066691622138,363.93162733875215L674.0408913348801,345.04533228464425Z" fill="#fee7d2" stroke="#fee7d2"></path><path d="M659.2259240522981,219.14293126901612L674.0408913348801,345.04533228464425L766.3714061095379,247.99653222085908Z" fill="#fde4ce" stroke="#fde4ce"></path><path d="M766.3714061095379,247.99653222085908L674.0408913348801,345.04533228464425L787.9337149998173,358.8979225233197Z" fill="#fdf3e5" stroke="#fdf3e5"></path><path d="M766.3714061095379,247.99653222085908L787.9337149998173,358.8979225233197L895.2329201670364,225.78125059837475Z" fill="#fceede" stroke="#fceede"></path><path d="M895.2329201670364,225.78125059837475L787.9337149998173,358.8979225233197L935.3120784484781,330.8231886359863Z" fill="#faf7ed" stroke="#faf7ed"></path><path d="M895.2329201670364,225.78125059837475L935.3120784484781,330.8231886359863L1006.4233759976923,218.33152905572206Z" fill="#f3e7da" stroke="#f3e7da"></path><path d="M1006.4233759976923,218.33152905572206L935.3120784484781,330.8231886359863L1089.845625529997,359.9256090493873Z" fill="#edf1ea" stroke="#edf1ea"></path><path d="M1006.4233759976923,218.33152905572206L1089.845625529997,359.9256090493873L1171.4899843628518,242.01972153503448Z" fill="#e5e4dc" stroke="#e5e4dc"></path><path d="M1171.4899843628518,242.01972153503448L1089.845625529997,359.9256090493873L1181.8439461756498,358.8707474246621Z" fill="#dceceb" stroke="#dceceb"></path><path d="M1171.4899843628518,242.01972153503448L1181.8439461756498,358.8707474246621L1297.3078110744245,375.39976773550734Z" fill="#d2e7e9" stroke="#d2e7e9"></path><path d="M1171.4899843628518,242.01972153503448L1297.3078110744245,375.39976773550734L1322.9924766509794,224.40958791878074Z" fill="#cbd9d8" stroke="#cbd9d8"></path><path d="M1322.9924766509794,224.40958791878074L1297.3078110744245,375.39976773550734L1494.098962370772,380.56290545267984Z" fill="#b8d8e0" stroke="#b8d8e0"></path><path d="M1322.9924766509794,224.40958791878074L1494.098962370772,380.56290545267984L1420.0153456884436,188.17749136360362Z" fill="#b0c4c8" stroke="#b0c4c8"></path><path d="M1420.0153456884436,188.17749136360362L1494.098962370772,380.56290545267984L1581.9491441058926,221.1163652734831Z" fill="#a1bac2" stroke="#a1bac2"></path><path d="M1581.9491441058926,221.1163652734831L1494.098962370772,380.56290545267984L1612.772702164948,301.05699225561693Z" fill="#9cbdce" stroke="#9cbdce"></path><path d="M1581.9491441058926,221.1163652734831L1612.772702164948,301.05699225561693L1710.7193027366884,317.08048610948026Z" fill="#96b0c2" stroke="#96b0c2"></path><path d="M1581.9491441058926,221.1163652734831L1710.7193027366884,317.08048610948026L1798.3839957299642,159.83416160568595Z" fill="#919cac" stroke="#919cac"></path><path d="M1798.3839957299642,159.83416160568595L1710.7193027366884,317.08048610948026L1865.2237472077832,211.60106639144942Z" fill="#8991a6" stroke="#8991a6"></path><path d="M1865.2237472077832,211.60106639144942L1710.7193027366884,317.08048610948026L1941.438934407197,338.0917930440046Z" fill="#869dba" stroke="#869dba"></path><path d="M1865.2237472077832,211.60106639144942L1941.438934407197,338.0917930440046L2007.5304430024698,158.1416788836941Z" fill="#8084a0" stroke="#8084a0"></path><path d="M2007.5304430024698,158.1416788836941L1941.438934407197,338.0917930440046L2031.6022942773998,361.7904602410272Z" fill="#808bb1" stroke="#808bb1"></path><path d="M-41.191731225699186,400.7911012112163L-113.75659436220303,515.4612784367055L15.82598640350625,477.38141406327486Z" fill="#d48492" stroke="#d48492"></path><path d="M-41.191731225699186,400.7911012112163L15.82598640350625,477.38141406327486L116.4425016916357,354.9856284051202Z" fill="#db9197" stroke="#db9197"></path><path d="M116.4425016916357,354.9856284051202L15.82598640350625,477.38141406327486L188.48043285077438,523.7503365147859Z" fill="#e19e9e" stroke="#e19e9e"></path><path d="M116.4425016916357,354.9856284051202L188.48043285077438,523.7503365147859L250.037407213822,343.1143726897426Z" fill="#e8aba2" stroke="#e8aba2"></path><path d="M250.037407213822,343.1143726897426L188.48043285077438,523.7503365147859L374.9301655543968,373.51974262623116Z" fill="#efb9ac" stroke="#efb9ac"></path><path d="M374.9301655543968,373.51974262623116L188.48043285077438,523.7503365147859L393.5673554777168,531.455279593356Z" fill="#f1c1b3" stroke="#f1c1b3"></path><path d="M374.9301655543968,373.51974262623116L393.5673554777168,531.455279593356L450.5483583873138,543.8827527384274Z" fill="#f7cfbe" stroke="#f7cfbe"></path><path d="M374.9301655543968,373.51974262623116L450.5483583873138,543.8827527384274L499.066691622138,363.93162733875215Z" fill="#fad4c3" stroke="#fad4c3"></path><path d="M499.066691622138,363.93162733875215L450.5483583873138,543.8827527384274L612.6993144652806,507.57012373767793Z" fill="#faded0" stroke="#faded0"></path><path d="M499.066691622138,363.93162733875215L612.6993144652806,507.57012373767793L674.0408913348801,345.04533228464425Z" fill="#fde8db" stroke="#fde8db"></path><path d="M674.0408913348801,345.04533228464425L612.6993144652806,507.57012373767793L719.9303238000721,444.8568060994148Z" fill="#feefe7" stroke="#feefe7"></path><path d="M674.0408913348801,345.04533228464425L719.9303238000721,444.8568060994148L787.9337149998173,358.8979225233197Z" fill="#fdf3ea" stroke="#fdf3ea"></path><path d="M787.9337149998173,358.8979225233197L719.9303238000721,444.8568060994148L884.2780659091659,495.4388258885592Z" fill="#fcf8f5" stroke="#fcf8f5"></path><path d="M787.9337149998173,358.8979225233197L884.2780659091659,495.4388258885592L935.3120784484781,330.8231886359863Z" fill="#fafbf8" stroke="#fafbf8"></path><path d="M935.3120784484781,330.8231886359863L884.2780659091659,495.4388258885592L1089.845625529997,359.9256090493873Z" fill="#f1f6f7" stroke="#f1f6f7"></path><path d="M1089.845625529997,359.9256090493873L884.2780659091659,495.4388258885592L1100.984380596783,537.0483372081071Z" fill="#ebf4f8" stroke="#ebf4f8"></path><path d="M1089.845625529997,359.9256090493873L1100.984380596783,537.0483372081071L1157.1342398691922,446.9703426514752Z" fill="#e0eff6" stroke="#e0eff6"></path><path d="M1089.845625529997,359.9256090493873L1157.1342398691922,446.9703426514752L1181.8439461756498,358.8707474246621Z" fill="#ddedf2" stroke="#ddedf2"></path><path d="M1181.8439461756498,358.8707474246621L1157.1342398691922,446.9703426514752L1297.3078110744245,375.39976773550734Z" fill="#d3e7ef" stroke="#d3e7ef"></path><path d="M1297.3078110744245,375.39976773550734L1157.1342398691922,446.9703426514752L1313.3913212572224,466.84506952995434Z" fill="#cce4f0" stroke="#cce4f0"></path><path d="M1297.3078110744245,375.39976773550734L1313.3913212572224,466.84506952995434L1494.098962370772,380.56290545267984Z" fill="#b8d8e8" stroke="#b8d8e8"></path><path d="M1494.098962370772,380.56290545267984L1313.3913212572224,466.84506952995434L1518.7780532287434,487.8765509254299Z" fill="#aacfe4" stroke="#aacfe4"></path><path d="M1494.098962370772,380.56290545267984L1518.7780532287434,487.8765509254299L1612.772702164948,301.05699225561693Z" fill="#9dc4dc" stroke="#9dc4dc"></path><path d="M1612.772702164948,301.05699225561693L1518.7780532287434,487.8765509254299L1639.926323229447,521.2949690432288Z" fill="#99bfdc" stroke="#99bfdc"></path><path d="M1612.772702164948,301.05699225561693L1639.926323229447,521.2949690432288L1706.7890915693715,478.85195456212386Z" fill="#94b8d9" stroke="#94b8d9"></path><path d="M1612.772702164948,301.05699225561693L1706.7890915693715,478.85195456212386L1710.7193027366884,317.08048610948026Z" fill="#93b6d2" stroke="#93b6d2"></path><path d="M1710.7193027366884,317.08048610948026L1706.7890915693715,478.85195456212386L1899.0040182415396,459.45198643254116Z" fill="#8bacd2" stroke="#8bacd2"></path><path d="M1710.7193027366884,317.08048610948026L1899.0040182415396,459.45198643254116L1941.438934407197,338.0917930440046Z" fill="#85a4ca" stroke="#85a4ca"></path><path d="M1941.438934407197,338.0917930440046L1899.0040182415396,459.45198643254116L2031.6022942773998,361.7904602410272Z" fill="#8098c5" stroke="#8098c5"></path><path d="M2031.6022942773998,361.7904602410272L1899.0040182415396,459.45198643254116L1982.4932102649473,515.4829459125176Z" fill="#7f97c7" stroke="#7f97c7"></path><path d="M2031.6022942773998,361.7904602410272L1982.4932102649473,515.4829459125176L2028.80405416945,659.5101059274748Z" fill="#7d92c5" stroke="#7d92c5"></path><path d="M2031.6022942773998,361.7904602410272L2028.80405416945,659.5101059274748L2076.429397838656,1029.92574197473Z" fill="#4278be" stroke="#4278be"></path><path d="M-113.75659436220303,515.4612784367055L-72.70651295781136,1096.677668550983L-62.61206243187189,948.8248985609971Z" fill="#653c75" stroke="#653c75"></path><path d="M-113.75659436220303,515.4612784367055L-62.61206243187189,948.8248985609971L-54.7628390789032,811.4863125071861Z" fill="#785482" stroke="#785482"></path><path d="M-113.75659436220303,515.4612784367055L-54.7628390789032,811.4863125071861L-56.50173861999065,575.5971059575677Z" fill="#ab768f" stroke="#ab768f"></path><path d="M-113.75659436220303,515.4612784367055L-56.50173861999065,575.5971059575677L15.82598640350625,477.38141406327486Z" fill="#d18391" stroke="#d18391"></path><path d="M15.82598640350625,477.38141406327486L-56.50173861999065,575.5971059575677L32.17108831042424,615.6481691543013Z" fill="#cd8995" stroke="#cd8995"></path><path d="M15.82598640350625,477.38141406327486L32.17108831042424,615.6481691543013L188.48043285077438,523.7503365147859Z" fill="#d9989c" stroke="#d9989c"></path><path d="M188.48043285077438,523.7503365147859L32.17108831042424,615.6481691543013L190.28319895500317,603.5158422915265Z" fill="#cf9ea0" stroke="#cf9ea0"></path><path d="M188.48043285077438,523.7503365147859L190.28319895500317,603.5158422915265L298.06624573888257,597.5115551124327Z" fill="#d9aea8" stroke="#d9aea8"></path><path d="M188.48043285077438,523.7503365147859L298.06624573888257,597.5115551124327L393.5673554777168,531.455279593356Z" fill="#e6bbb0" stroke="#e6bbb0"></path><path d="M393.5673554777168,531.455279593356L298.06624573888257,597.5115551124327L469.591389677953,581.4911705302075Z" fill="#e6c8bc" stroke="#e6c8bc"></path><path d="M393.5673554777168,531.455279593356L469.591389677953,581.4911705302075L450.5483583873138,543.8827527384274Z" fill="#efd2c3" stroke="#efd2c3"></path><path d="M450.5483583873138,543.8827527384274L469.591389677953,581.4911705302075L612.6993144652806,507.57012373767793Z" fill="#f4dbce" stroke="#f4dbce"></path><path d="M612.6993144652806,507.57012373767793L469.591389677953,581.4911705302075L607.9476981796324,580.4849467682652Z" fill="#f1e1d7" stroke="#f1e1d7"></path><path d="M612.6993144652806,507.57012373767793L607.9476981796324,580.4849467682652L719.9303238000721,444.8568060994148Z" fill="#fceee4" stroke="#fceee4"></path><path d="M719.9303238000721,444.8568060994148L607.9476981796324,580.4849467682652L715.1145333074965,682.1315457555465Z" fill="#edece8" stroke="#edece8"></path><path d="M719.9303238000721,444.8568060994148L715.1145333074965,682.1315457555465L884.2780659091659,495.4388258885592Z" fill="#f6f5f2" stroke="#f6f5f2"></path><path d="M884.2780659091659,495.4388258885592L715.1145333074965,682.1315457555465L908.9350852975622,654.0254469029605Z" fill="#dcf3f9" stroke="#dcf3f9"></path><path d="M884.2780659091659,495.4388258885592L908.9350852975622,654.0254469029605L1043.677001465112,585.1238861610182Z" fill="#dff3fa" stroke="#dff3fa"></path><path d="M884.2780659091659,495.4388258885592L1043.677001465112,585.1238861610182L1100.984380596783,537.0483372081071Z" fill="#e7f4f9" stroke="#e7f4f9"></path><path d="M1100.984380596783,537.0483372081071L1043.677001465112,585.1238861610182L1213.1045932415873,633.9582337462343Z" fill="#cae9f6" stroke="#cae9f6"></path><path d="M1100.984380596783,537.0483372081071L1213.1045932415873,633.9582337462343L1157.1342398691922,446.9703426514752Z" fill="#d5eaf4" stroke="#d5eaf4"></path><path d="M1157.1342398691922,446.9703426514752L1213.1045932415873,633.9582337462343L1293.1080435332842,586.1284034885466Z" fill="#c5e4f1" stroke="#c5e4f1"></path><path d="M1157.1342398691922,446.9703426514752L1293.1080435332842,586.1284034885466L1313.3913212572224,466.84506952995434Z" fill="#cbe4f0" stroke="#cbe4f0"></path><path d="M1313.3913212572224,466.84506952995434L1293.1080435332842,586.1284034885466L1518.7780532287434,487.8765509254299Z" fill="#b5d7e9" stroke="#b5d7e9"></path><path d="M1518.7780532287434,487.8765509254299L1293.1080435332842,586.1284034885466L1486.284986154642,649.494096909184Z" fill="#9acce5" stroke="#9acce5"></path><path d="M1518.7780532287434,487.8765509254299L1486.284986154642,649.494096909184L1639.926323229447,521.2949690432288Z" fill="#92c1de" stroke="#92c1de"></path><path d="M1639.926323229447,521.2949690432288L1486.284986154642,649.494096909184L1658.5003026761115,608.444244035054Z" fill="#80b9dc" stroke="#80b9dc"></path><path d="M1639.926323229447,521.2949690432288L1658.5003026761115,608.444244035054L1706.7890915693715,478.85195456212386Z" fill="#8eb6d8" stroke="#8eb6d8"></path><path d="M1706.7890915693715,478.85195456212386L1658.5003026761115,608.444244035054L1786.0381752974354,677.6180817442946Z" fill="#78acd5" stroke="#78acd5"></path><path d="M1706.7890915693715,478.85195456212386L1786.0381752974354,677.6180817442946L1910.308999940753,602.4891109671444Z" fill="#72a3d1" stroke="#72a3d1"></path><path d="M1706.7890915693715,478.85195456212386L1910.308999940753,602.4891109671444L1899.0040182415396,459.45198643254116Z" fill="#83a5cf" stroke="#83a5cf"></path><path d="M1899.0040182415396,459.45198643254116L1910.308999940753,602.4891109671444L1982.4932102649473,515.4829459125176Z" fill="#7d9bca" stroke="#7d9bca"></path><path d="M1982.4932102649473,515.4829459125176L1910.308999940753,602.4891109671444L2028.80405416945,659.5101059274748Z" fill="#6791c7" stroke="#6791c7"></path><path d="M-56.50173861999065,575.5971059575677L-54.7628390789032,811.4863125071861L32.17108831042424,615.6481691543013Z" fill="#a17590" stroke="#a17590"></path><path d="M32.17108831042424,615.6481691543013L-54.7628390789032,811.4863125071861L24.720376709010452,815.4860271979123Z" fill="#80638a" stroke="#80638a"></path><path d="M32.17108831042424,615.6481691543013L24.720376709010452,815.4860271979123L195.94353664200753,781.5438077831641Z" fill="#8b7391" stroke="#8b7391"></path><path d="M32.17108831042424,615.6481691543013L195.94353664200753,781.5438077831641L190.28319895500317,603.5158422915265Z" fill="#af919d" stroke="#af919d"></path><path d="M190.28319895500317,603.5158422915265L195.94353664200753,781.5438077831641L303.2952210190706,727.7778172073886Z" fill="#a595a1" stroke="#a595a1"></path><path d="M190.28319895500317,603.5158422915265L303.2952210190706,727.7778172073886L298.06624573888257,597.5115551124327Z" fill="#c3acac" stroke="#c3acac"></path><path d="M298.06624573888257,597.5115551124327L303.2952210190706,727.7778172073886L469.591389677953,581.4911705302075Z" fill="#cdbdb8" stroke="#cdbdb8"></path><path d="M469.591389677953,581.4911705302075L303.2952210190706,727.7778172073886L482.10244056303054,757.6070028590038Z" fill="#bab8ba" stroke="#bab8ba"></path><path d="M469.591389677953,581.4911705302075L482.10244056303054,757.6070028590038L607.9476981796324,580.4849467682652Z" fill="#d2d3cf" stroke="#d2d3cf"></path><path d="M607.9476981796324,580.4849467682652L482.10244056303054,757.6070028590038L661.247957451269,736.2121854699217Z" fill="#bccdd5" stroke="#bccdd5"></path><path d="M607.9476981796324,580.4849467682652L661.247957451269,736.2121854699217L715.1145333074965,682.1315457555465Z" fill="#c8dce3" stroke="#c8dce3"></path><path d="M715.1145333074965,682.1315457555465L661.247957451269,736.2121854699217L793.7208843696862,813.1697307247669Z" fill="#a6cae2" stroke="#a6cae2"></path><path d="M715.1145333074965,682.1315457555465L793.7208843696862,813.1697307247669L908.9350852975622,654.0254469029605Z" fill="#b0d8ed" stroke="#b0d8ed"></path><path d="M908.9350852975622,654.0254469029605L793.7208843696862,813.1697307247669L939.7219300200231,812.1074171643704Z" fill="#9eceee" stroke="#9eceee"></path><path d="M908.9350852975622,654.0254469029605L939.7219300200231,812.1074171643704L1026.8895542272367,783.2580423192121Z" fill="#99cdee" stroke="#99cdee"></path><path d="M908.9350852975622,654.0254469029605L1026.8895542272367,783.2580423192121L1043.677001465112,585.1238861610182Z" fill="#b6e1f5" stroke="#b6e1f5"></path><path d="M1043.677001465112,585.1238861610182L1026.8895542272367,783.2580423192121L1213.1045932415873,633.9582337462343Z" fill="#aedef4" stroke="#aedef4"></path><path d="M1213.1045932415873,633.9582337462343L1026.8895542272367,783.2580423192121L1215.4789049504325,818.4293165104464Z" fill="#84c3e9" stroke="#84c3e9"></path><path d="M1213.1045932415873,633.9582337462343L1215.4789049504325,818.4293165104464L1341.9456824869849,731.6680238745175Z" fill="#7bc0e6" stroke="#7bc0e6"></path><path d="M1213.1045932415873,633.9582337462343L1341.9456824869849,731.6680238745175L1293.1080435332842,586.1284034885466Z" fill="#9ad4ed" stroke="#9ad4ed"></path><path d="M1293.1080435332842,586.1284034885466L1341.9456824869849,731.6680238745175L1486.284986154642,649.494096909184Z" fill="#86c8e7" stroke="#86c8e7"></path><path d="M1486.284986154642,649.494096909184L1341.9456824869849,731.6680238745175L1512.9610438458622,719.2628199188039Z" fill="#65b3de" stroke="#65b3de"></path><path d="M1486.284986154642,649.494096909184L1512.9610438458622,719.2628199188039L1658.5003026761115,608.444244035054Z" fill="#6ab3dc" stroke="#6ab3dc"></path><path d="M1658.5003026761115,608.444244035054L1512.9610438458622,719.2628199188039L1702.2477488126606,739.493039001245Z" fill="#57a2d5" stroke="#57a2d5"></path><path d="M1658.5003026761115,608.444244035054L1702.2477488126606,739.493039001245L1786.0381752974354,677.6180817442946Z" fill="#569dd1" stroke="#569dd1"></path><path d="M1786.0381752974354,677.6180817442946L1702.2477488126606,739.493039001245L1902.764317607507,796.2514105858281Z" fill="#3483c6" stroke="#3483c6"></path><path d="M1786.0381752974354,677.6180817442946L1902.764317607507,796.2514105858281L1910.308999940753,602.4891109671444Z" fill="#4388c8" stroke="#4388c8"></path><path d="M1910.308999940753,602.4891109671444L1902.764317607507,796.2514105858281L2028.80405416945,659.5101059274748Z" fill="#4181c4" stroke="#4181c4"></path><path d="M2028.80405416945,659.5101059274748L1902.764317607507,796.2514105858281L2027.449864540249,813.3069745311514Z" fill="#266aba" stroke="#266aba"></path><path d="M2028.80405416945,659.5101059274748L2027.449864540249,813.3069745311514L2076.429397838656,1029.92574197473Z" fill="#1750ad" stroke="#1750ad"></path><path d="M-54.7628390789032,811.4863125071861L-62.61206243187189,948.8248985609971L29.593193146865815,891.5643383469433Z" fill="#633b75" stroke="#633b75"></path><path d="M-54.7628390789032,811.4863125071861L29.593193146865815,891.5643383469433L24.720376709010452,815.4860271979123Z" fill="#6f4b7d" stroke="#6f4b7d"></path><path d="M24.720376709010452,815.4860271979123L29.593193146865815,891.5643383469433L195.94353664200753,781.5438077831641Z" fill="#775c85" stroke="#775c85"></path><path d="M195.94353664200753,781.5438077831641L29.593193146865815,891.5643383469433L257.93716377345845,943.2089392072521Z" fill="#765e86" stroke="#765e86"></path><path d="M195.94353664200753,781.5438077831641L257.93716377345845,943.2089392072521L326.99324316810817,921.6838166187517Z" fill="#7c6c8f" stroke="#7c6c8f"></path><path d="M195.94353664200753,781.5438077831641L326.99324316810817,921.6838166187517L303.2952210190706,727.7778172073886Z" fill="#8b819a" stroke="#8b819a"></path><path d="M303.2952210190706,727.7778172073886L326.99324316810817,921.6838166187517L482.10244056303054,757.6070028590038Z" fill="#9392a7" stroke="#9392a7"></path><path d="M482.10244056303054,757.6070028590038L326.99324316810817,921.6838166187517L487.1318372897804,872.4973243381828Z" fill="#8d8fa9" stroke="#8d8fa9"></path><path d="M482.10244056303054,757.6070028590038L487.1318372897804,872.4973243381828L640.1179196336307,887.3988359002396Z" fill="#92a0bb" stroke="#92a0bb"></path><path d="M482.10244056303054,757.6070028590038L640.1179196336307,887.3988359002396L661.247957451269,736.2121854699217Z" fill="#9cb2ca" stroke="#9cb2ca"></path><path d="M661.247957451269,736.2121854699217L640.1179196336307,887.3988359002396L717.5371514167637,897.3467460507527Z" fill="#93aecf" stroke="#93aecf"></path><path d="M661.247957451269,736.2121854699217L717.5371514167637,897.3467460507527L793.7208843696862,813.1697307247669Z" fill="#98b8d8" stroke="#98b8d8"></path><path d="M793.7208843696862,813.1697307247669L717.5371514167637,897.3467460507527L904.8747168364935,863.7229842087254Z" fill="#8eb3dc" stroke="#8eb3dc"></path><path d="M793.7208843696862,813.1697307247669L904.8747168364935,863.7229842087254L939.7219300200231,812.1074171643704Z" fill="#90bce4" stroke="#90bce4"></path><path d="M939.7219300200231,812.1074171643704L904.8747168364935,863.7229842087254L1093.4687563357875,879.5746477134526Z" fill="#84b2e0" stroke="#84b2e0"></path><path d="M939.7219300200231,812.1074171643704L1093.4687563357875,879.5746477134526L1026.8895542272367,783.2580423192121Z" fill="#85b7e3" stroke="#85b7e3"></path><path d="M1026.8895542272367,783.2580423192121L1093.4687563357875,879.5746477134526L1215.4789049504325,818.4293165104464Z" fill="#7ab1e0" stroke="#7ab1e0"></path><path d="M1215.4789049504325,818.4293165104464L1093.4687563357875,879.5746477134526L1191.0582326445729,879.345788473729Z" fill="#6ba5d9" stroke="#6ba5d9"></path><path d="M1215.4789049504325,818.4293165104464L1191.0582326445729,879.345788473729L1297.3582833004184,964.4965227856301Z" fill="#5c99d3" stroke="#5c99d3"></path><path d="M1215.4789049504325,818.4293165104464L1297.3582833004184,964.4965227856301L1341.9456824869849,731.6680238745175Z" fill="#5ea1d7" stroke="#5ea1d7"></path><path d="M1341.9456824869849,731.6680238745175L1297.3582833004184,964.4965227856301L1460.0452051032335,863.0612761806697Z" fill="#4c94d0" stroke="#4c94d0"></path><path d="M1341.9456824869849,731.6680238745175L1460.0452051032335,863.0612761806697L1512.9610438458622,719.2628199188039Z" fill="#4ea0d6" stroke="#4ea0d6"></path><path d="M1512.9610438458622,719.2628199188039L1460.0452051032335,863.0612761806697L1575.0282526784576,818.0718125845306Z" fill="#3d90ce" stroke="#3d90ce"></path><path d="M1512.9610438458622,719.2628199188039L1575.0282526784576,818.0718125845306L1702.2477488126606,739.493039001245Z" fill="#3f92cf" stroke="#3f92cf"></path><path d="M1575.0282526784576,818.0718125845306L1460.0452051032335,863.0612761806697L1557.8958609211259,964.0745389298536Z" fill="#2c7ac2" stroke="#2c7ac2"></path><path d="M1575.0282526784576,818.0718125845306L1557.8958609211259,964.0745389298536L1705.6216822355054,929.1206027544104Z" fill="#216cbb" stroke="#216cbb"></path><path d="M1575.0282526784576,818.0718125845306L1705.6216822355054,929.1206027544104L1702.2477488126606,739.493039001245Z" fill="#2c7ac2" stroke="#2c7ac2"></path><path d="M1702.2477488126606,739.493039001245L1705.6216822355054,929.1206027544104L1902.0374820916913,869.7085272450931Z" fill="#206aba" stroke="#206aba"></path><path d="M1702.2477488126606,739.493039001245L1902.0374820916913,869.7085272450931L1902.764317607507,796.2514105858281Z" fill="#236ebc" stroke="#236ebc"></path><path d="M1902.764317607507,796.2514105858281L1902.0374820916913,869.7085272450931L2027.449864540249,813.3069745311514Z" fill="#185cb3" stroke="#185cb3"></path><path d="M2027.449864540249,813.3069745311514L1902.0374820916913,869.7085272450931L2030.3676105826162,920.9679452795535Z" fill="#104dab" stroke="#104dab"></path><path d="M2027.449864540249,813.3069745311514L2030.3676105826162,920.9679452795535L2076.429397838656,1029.92574197473Z" fill="#063aa1" stroke="#063aa1"></path><path d="M-62.61206243187189,948.8248985609971L-72.70651295781136,1096.677668550983L63.956163281109184,1073.4336923388764Z" fill="#571461" stroke="#571461"></path><path d="M-62.61206243187189,948.8248985609971L63.956163281109184,1073.4336923388764L29.593193146865815,891.5643383469433Z" fill="#5a2b6d" stroke="#5a2b6d"></path><path d="M29.593193146865815,891.5643383469433L63.956163281109184,1073.4336923388764L186.22847106540576,1073.8244906882755Z" fill="#612f6e" stroke="#612f6e"></path><path d="M29.593193146865815,891.5643383469433L186.22847106540576,1073.8244906882755L257.93716377345845,943.2089392072521Z" fill="#674579" stroke="#674579"></path><path d="M257.93716377345845,943.2089392072521L186.22847106540576,1073.8244906882755L317.5402863067575,1052.78506152099Z" fill="#6e477b" stroke="#6e477b"></path><path d="M257.93716377345845,943.2089392072521L317.5402863067575,1052.78506152099L326.99324316810817,921.6838166187517Z" fill="#715b88" stroke="#715b88"></path><path d="M326.99324316810817,921.6838166187517L317.5402863067575,1052.78506152099L448.8502239016816,1074.4292512955144Z" fill="#765b8a" stroke="#765b8a"></path><path d="M326.99324316810817,921.6838166187517L448.8502239016816,1074.4292512955144L487.1318372897804,872.4973243381828Z" fill="#7a7399" stroke="#7a7399"></path><path d="M487.1318372897804,872.4973243381828L448.8502239016816,1074.4292512955144L640.1179196336307,887.3988359002396Z" fill="#7d83ab" stroke="#7d83ab"></path><path d="M640.1179196336307,887.3988359002396L448.8502239016816,1074.4292512955144L634.1200829856098,1097.8567643021233Z" fill="#7d76a9" stroke="#7d76a9"></path><path d="M640.1179196336307,887.3988359002396L634.1200829856098,1097.8567643021233L717.5371514167637,897.3467460507527Z" fill="#7e8fbe" stroke="#7e8fbe"></path><path d="M717.5371514167637,897.3467460507527L634.1200829856098,1097.8567643021233L767.3081938084215,1052.999072005041Z" fill="#7e84bc" stroke="#7e84bc"></path><path d="M717.5371514167637,897.3467460507527L767.3081938084215,1052.999072005041L904.8747168364935,863.7229842087254Z" fill="#7f9ed0" stroke="#7f9ed0"></path><path d="M904.8747168364935,863.7229842087254L767.3081938084215,1052.999072005041L922.3195230099373,1097.8791557601653Z" fill="#7b90ce" stroke="#7b90ce"></path><path d="M904.8747168364935,863.7229842087254L922.3195230099373,1097.8791557601653L1008.3126484253444,1062.4031051294878Z" fill="#748ccc" stroke="#748ccc"></path><path d="M904.8747168364935,863.7229842087254L1008.3126484253444,1062.4031051294878L1093.4687563357875,879.5746477134526Z" fill="#719cd4" stroke="#719cd4"></path><path d="M1093.4687563357875,879.5746477134526L1008.3126484253444,1062.4031051294878L1218.9515295112506,1085.7121434435248Z" fill="#6383c8" stroke="#6383c8"></path><path d="M1093.4687563357875,879.5746477134526L1218.9515295112506,1085.7121434435248L1191.0582326445729,879.345788473729Z" fill="#5a8ecd" stroke="#5a8ecd"></path><path d="M1191.0582326445729,879.345788473729L1218.9515295112506,1085.7121434435248L1297.3582833004184,964.4965227856301Z" fill="#5082c7" stroke="#5082c7"></path><path d="M1297.3582833004184,964.4965227856301L1218.9515295112506,1085.7121434435248L1381.5981713635847,1000.9375528083183Z" fill="#4672bf" stroke="#4672bf"></path><path d="M1297.3582833004184,964.4965227856301L1381.5981713635847,1000.9375528083183L1460.0452051032335,863.0612761806697Z" fill="#387cc3" stroke="#387cc3"></path><path d="M1460.0452051032335,863.0612761806697L1381.5981713635847,1000.9375528083183L1466.7192027624696,1040.586139562074Z" fill="#2c6ebc" stroke="#2c6ebc"></path><path d="M1460.0452051032335,863.0612761806697L1466.7192027624696,1040.586139562074L1557.8958609211259,964.0745389298536Z" fill="#226bba" stroke="#226bba"></path><path d="M1557.8958609211259,964.0745389298536L1466.7192027624696,1040.586139562074L1632.891211695969,1018.6778505309485Z" fill="#1d58b0" stroke="#1d58b0"></path><path d="M1557.8958609211259,964.0745389298536L1632.891211695969,1018.6778505309485L1705.6216822355054,929.1206027544104Z" fill="#1759b1" stroke="#1759b1"></path><path d="M1705.6216822355054,929.1206027544104L1632.891211695969,1018.6778505309485L1726.5373090072535,1091.9525875663385Z" fill="#1248a8" stroke="#1248a8"></path><path d="M1705.6216822355054,929.1206027544104L1726.5373090072535,1091.9525875663385L1890.3628168511204,1101.8875542934984Z" fill="#0b38a0" stroke="#0b38a0"></path><path d="M1705.6216822355054,929.1206027544104L1890.3628168511204,1101.8875542934984L1902.0374820916913,869.7085272450931Z" fill="#0744a6" stroke="#0744a6"></path><path d="M1902.0374820916913,869.7085272450931L1890.3628168511204,1101.8875542934984L2030.3676105826162,920.9679452795535Z" fill="#003aa1" stroke="#003aa1"></path><path d="M2030.3676105826162,920.9679452795535L1890.3628168511204,1101.8875542934984L2076.429397838656,1029.92574197473Z" fill="#002696" stroke="#002696"></path><path d="M-72.70651295781136,1096.677668550983L1890.3628168511204,1101.8875542934984L634.1200829856098,1097.8567643021233Z" fill="#7c79bd" stroke="#7c79bd"></path><path d="M-72.70651295781136,1096.677668550983L634.1200829856098,1097.8567643021233L186.22847106540576,1073.8244906882755Z" fill="#6e3672" stroke="#6e3672"></path><path d="M-72.70651295781136,1096.677668550983L186.22847106540576,1073.8244906882755L63.956163281109184,1073.4336923388764Z" fill="#5e1862" stroke="#5e1862"></path><path d="M186.22847106540576,1073.8244906882755L634.1200829856098,1097.8567643021233L448.8502239016816,1074.4292512955144Z" fill="#7a5388" stroke="#7a5388"></path><path d="M186.22847106540576,1073.8244906882755L448.8502239016816,1074.4292512955144L317.5402863067575,1052.78506152099Z" fill="#73467d" stroke="#73467d"></path><path d="M634.1200829856098,1097.8567643021233L1890.3628168511204,1101.8875542934984L922.3195230099373,1097.8791557601653Z" fill="#5d6dba" stroke="#5d6dba"></path><path d="M634.1200829856098,1097.8567643021233L922.3195230099373,1097.8791557601653L767.3081938084215,1052.999072005041Z" fill="#7d78ba" stroke="#7d78ba"></path><path d="M922.3195230099373,1097.8791557601653L1890.3628168511204,1101.8875542934984L1218.9515295112506,1085.7121434435248Z" fill="#3d5bb1" stroke="#3d5bb1"></path><path d="M922.3195230099373,1097.8791557601653L1218.9515295112506,1085.7121434435248L1008.3126484253444,1062.4031051294878Z" fill="#6a74c0" stroke="#6a74c0"></path><path d="M1218.9515295112506,1085.7121434435248L1890.3628168511204,1101.8875542934984L1726.5373090072535,1091.9525875663385Z" fill="#183da2" stroke="#183da2"></path><path d="M1218.9515295112506,1085.7121434435248L1726.5373090072535,1091.9525875663385L1466.7192027624696,1040.586139562074Z" fill="#2650ac" stroke="#2650ac"></path><path d="M1218.9515295112506,1085.7121434435248L1466.7192027624696,1040.586139562074L1381.5981713635847,1000.9375528083183Z" fill="#3b65b7" stroke="#3b65b7"></path><path d="M1466.7192027624696,1040.586139562074L1726.5373090072535,1091.9525875663385L1632.891211695969,1018.6778505309485Z" fill="#1947a8" stroke="#1947a8"></path></g><filter id="noise"><feTurbulence type="fractalNoise" in="fillPaint" fill="#F00" baseFrequency="0.7" numOctaves="10" stitchTiles="stitch"></feTurbulence><feComponentTransfer><feFuncR type="linear" slope="2" intercept="-.5"></feFuncR><feFuncG type="linear" slope="2" intercept="-.5"></feFuncG><feFuncB type="linear" slope="2" intercept="-.5"></feFuncB></feComponentTransfer><feColorMatrix type="matrix" values="0.3333 0.3333 0.3333 0 0 
 0.3333 0.3333 0.3333 0 0 
 0.3333 0.3333 0.3333 0 0 
 0 0 0 1 0"></feColorMatrix></filter><rect opacity="0.4" width="100%" height="100%" filter="url(#noise)"></rect></svg>